# xmcd
#
# Track frame offsets:
# 150
# 11974
# 24517
# 36755
# 45935
# 60356
# 66742
# 81833
# 92873
# 106151
# 113745
# 122889
#
# Disc length: 1761 seconds
#
# Revision: 0
# Processed by: cddbd v1.5.1PL2 Copyright (c) Steve Scherf et al.
# Submitted via: Audion 3.0.2 (http://www.panic.com/audion/)
#
DISCID=9a06df0c
DTITLE=memphis black - soul club
DYEAR=1900
DGENRE=
TTITLE0=why dont you play the organ man
TTITLE1=stagger lee
TTITLE2=chain of fools
TTITLE3=hey joe
TTITLE4=amen
TTITLE5=whole lotta woman
TTITLE6=hang em high
TTITLE7=soul man
TTITLE8=sister aretha
TTITLE9=gimmie little sign
TTITLE10=im a midnight mover
TTITLE11=soul finger
EXTD=
EXTT0=
EXTT1=
EXTT2=
EXTT3=
EXTT4=
EXTT5=
EXTT6=
EXTT7=
EXTT8=
EXTT9=
EXTT10=
EXTT11=
PLAYORDER=
